<svg xmlns="http://www.w3.org/2000/svg" width="714" height="398" viewBox="0 0 714 398">
    <g fill="none" fill-rule="evenodd" stroke-linecap="round" stroke-linejoin="round">
        <g stroke="#1BBF69">
            <g transform="translate(-611 -7604) translate(613 7606)">
                <path stroke-width="2.3" d="M219 338L219 275.527 186.383 275.527 184.938 218.325 179.946 218.325 176.727 275.527 160.127 275.527 160.127 230.49 150.116 230.49 147.759 187 141.322 187 138.56 230.845 126.268 230.845 126.268 255.429 108.122 267.163 108.122 286.906 77 305.078 77 338M212.399 124.676c-3.853 0-7.568 1.424-10.42 3.997-4.165-5.059-11.084-6.97-17.282-4.772-6.198 2.197-10.334 8.027-10.332 14.561 0 0 0 0 0 0-6.487.669-11.866 5.284-13.475 11.56h-.51c-5.349.041-9.666 4.351-9.68 9.663.09 1.001.09 2.008 0 3.01-3.7 0-6.7 2.978-6.7 6.652 0 3.675 3 6.653 6.7 6.653s6.7-2.978 6.7-6.653c1.008-.089 2.023-.089 3.031 0 2.519.002 4.94-.968 6.75-2.706 6.93 4.727 16.39 3.124 21.348-3.617 3.453 6.167 10.675 9.228 17.549 7.44 6.874-1.789 11.655-7.973 11.62-15.029v-.91c7.116-2.54 11.365-9.792 10.07-17.19-1.293-7.399-7.756-12.803-15.318-12.81l-.051.151zM184 204.155c.004 1.852 1.307 3.44 3.103 3.78 1.795.339 3.575-.665 4.238-2.391 2.93 1.256 6.33.334 8.25-2.239s1.873-6.14-.115-8.659c-1.988-2.52-5.409-3.349-8.306-2.014-2.897 1.336-4.53 4.495-3.965 7.67-1.863.3-3.228 1.94-3.205 3.853z"/>
                <path stroke-width="2.3" d="M136 250L136 245 140 245M136 266L136 261 140 261M136 282L136 277 140 277M136 298L136 293 140 293M92 312L92 307 96 307M92 327L92 322 96 322M196 293L196 288 200 288M196 312L196 307 200 307M176 327L176 322 180 322M115 312L115 307 119 307M523.774 213.536s-9.393-38.878 17.567-63.012c18.71-16.75 23.888-4.822 39.069-15.227 5.077-3.426 13.937 23.246.482 55.374-13.454 32.128-54.478 29.133-54.478 29.133L514 238"/>
                <path stroke-width="2.3" d="M562.895 160L547.428 172.627 557.412 177.362 547 192 568 176.547 556.154 170.896zM538 332.872v-33.939c-1.164-27.764-31.077-29.423-40.922-35.726-9.844-6.303-14.096-2.551-13.514 0 .582 2.552 7.137 7.656 12.097 11.1.262.199.368.543.265.855-.103.313-.394.524-.72.524-17.083-.434-27.155-3.011-29.205-5.563-2.53-3.062-14.906-14.392-19.765-15.873-4.859-1.48-12.653 3.573-7.592 15.873 0 0 25.004 32 42.719 33.837 17.715 1.837 29.28 6.201 29.887 10.207.608 4.007 5.062 18.833 5.062 18.833M557 332.872v-33.939c1.164-27.764 31.077-29.423 40.922-35.726 9.844-6.303 14.096-2.551 13.514 0-.582 2.552-7.137 7.656-12.097 11.1-.262.199-.368.543-.265.855.103.313.394.524.72.524 17.083-.434 27.155-3.011 29.205-5.563 2.53-3.062 14.906-14.392 19.765-15.873 4.859-1.48 12.653 3.573 7.592 15.873 0 0-25.004 32-42.719 33.837-17.715 1.837-29.28 6.201-29.887 10.207-.608 4.007-5.062 18.833-5.062 18.833"/>
                <path stroke-width="2.27" d="M0 394.5L710 394.5"/>
                <path stroke-width="2.3" d="M538 29.487L548.823 43 569 16"/>
                <circle cx="554.5" cy="29.5" r="29.5" stroke-width="2.3"/>
                <circle cx="183.5" cy="29.5" r="29.5" stroke-width="2.3"/>
                <path stroke-width="2.3" d="M170 16L196 42M196 16L170 42"/>
                <path stroke-width="2.27" d="M620 238v-28.436c0-4.221-3.423-7.644-7.645-7.644h0c3.46-2.885 4.743-7.628 3.208-11.863-1.535-4.236-5.558-7.057-10.063-7.057-4.505 0-8.528 2.821-10.063 7.057-1.535 4.235-.252 8.978 3.208 11.863h0c-4.222 0-7.645 3.423-7.645 7.644V238M669 214v-28.485c0-4.214-3.423-7.63-7.645-7.63h0c3.46-2.88 4.743-7.614 3.208-11.841-1.535-4.228-5.558-7.044-10.063-7.044-4.505 0-8.528 2.816-10.063 7.044-1.535 4.227-.252 8.961 3.208 11.841h0c-4.222 0-7.645 3.416-7.645 7.63V214M501 204v-28.46c0-4.218-3.423-7.637-7.645-7.637h0c3.46-2.883 4.743-7.621 3.208-11.853-1.535-4.231-5.558-7.05-10.063-7.05-4.505 0-8.528 2.819-10.063 7.05-1.535 4.232-.252 8.97 3.208 11.853h0c-4.222 0-7.645 3.419-7.645 7.637V204M451 241v-28.436c0-4.221-3.423-7.644-7.645-7.644h0c3.46-2.885 4.743-7.628 3.208-11.863-1.535-4.236-5.558-7.057-10.063-7.057-4.505 0-8.528 2.821-10.063 7.057-1.535 4.235-.252 8.978 3.208 11.863h0c-4.222 0-7.645 3.423-7.645 7.644V241"/>
            </g>
        </g>
    </g>
</svg>
